# xmcd
#
# Track frame offsets:
# 150
# 23452
# 48812
# 66710
# 86312
# 98020
# 113860
# 142307
# 155662
# 161472
# 192602
# 199197
# 222560
# 256312
# 260120
# 289260
# 314085
#
# Disc length: 4431 seconds
#
#
# Revision: 0
# Processed by: cddbd v1.5.2PL0 Copyright (c) Steve Scherf et al.
# Submitted via: FreeRIP 2.951 
#
DISCID=0b114d11
DTITLE=Robson Nascimento - Tome a decisão
DYEAR=1900
DGENRE=Gospel
TTITLE0=Antes e Depois
TTITLE1=Por Tudo Que Es
TTITLE2=Esse e o Seu Nome
TTITLE3=Naquela Manha
TTITLE4=Ele Vira
TTITLE5=Fala-me
TTITLE6=Sou Teu Deus
TTITLE7=Tu es Fiel
TTITLE8=Trilha I
TTITLE9=Tome a Decisao
TTITLE10=Trilha II
TTITLE11=Mais Que Vencedor
TTITLE12=Teu Amor Por Mim
TTITLE13=Trilha III
TTITLE14=Cantico De Madalena
TTITLE15=Quem e o Dono Desse Amor
TTITLE16=Um So Pai
EXTD=
EXTT0=
EXTT1=
EXTT2=
EXTT3=
EXTT4=
EXTT5=
EXTT6=
EXTT7=
EXTT8=
EXTT9=
EXTT10=
EXTT11=
EXTT12=
EXTT13=
EXTT14=
EXTT15=
EXTT16=
PLAYORDER=
